<svg width="25" height="25" viewBox="0 0 25 25" fill="none" xmlns="http://www.w3.org/2000/svg">
<circle cx="12.4434" cy="12.498" r="9.5" fill="#FF0000"/>
<rect x="0.00488281" y="14.4141" width="3.61544" height="24.8649" rx="1" transform="rotate(-90.0858 0.00488281 14.4141)" fill="#FF0000"/>
<rect x="1.94336" y="5.75977" width="3.62" height="24.7973" rx="1" transform="rotate(-49.7292 1.94336 5.75977)" fill="#FF0000"/>
<rect x="20.6914" y="3" width="3.62" height="24.8619" rx="1" transform="rotate(49.2911 20.6914 3)" fill="#FF0000"/>
<rect x="10.6611" y="0.0175781" width="3.61612" height="24.8649" rx="1" transform="rotate(-0.271865 10.6611 0.0175781)" fill="#FF0000"/>
<circle cx="12.4424" cy="12.498" r="7.5" fill="white"/>
<path d="M14.9424 8.83138H12.4424M9.94238 16.1647H12.4424M12.4424 16.1647H13.6924C14.2447 16.1647 14.6924 15.717 14.6924 15.1647V13.498C14.6924 12.9458 14.2447 12.498 13.6924 12.498H11.1924C10.6401 12.498 10.1924 12.0503 10.1924 11.498V9.83138C10.1924 9.2791 10.6401 8.83138 11.1924 8.83138H12.4424M12.4424 16.1647V17.998M12.4424 8.83138V6.99805" stroke="#FF0004" stroke-width="2"/>
</svg>
